HIERARCHY
ROOT Hips
{
	OFFSET -0.001795 -0.223333 0.028219
	CHANNELS 6 Xposition Yposition Zposition Zrotation Yrotation Xrotation 
	JOINT LeftUpLeg
	{
		OFFSET 0.069520 -0.091406 -0.006815
		CHANNELS 3 Zrotation Yrotation Xrotation
		JOINT LeftLeg
		{
			OFFSET 0.034277 -0.375199 -0.004496
			CHANNELS 3 Zrotation Yrotation Xrotation
			JOINT LeftFoot
			{
				OFFSET -0.013596 -0.397961 -0.043693
				CHANNELS 3 Zrotation Yrotation Xrotation
				JOINT LeftToe
				{
					OFFSET 0.026358 -0.055791 0.119288
					CHANNELS 3 Zrotation Yrotation Xrotation
					End Site
					{
						OFFSET 0.000000 0.000000 0.000000
					}
				}
			}
		}
	}
	JOINT RightUpLeg
	{
		OFFSET -0.067670 -0.090522 -0.004320
		CHANNELS 3 Zrotation Yrotation Xrotation
		JOINT RightLeg
		{
			OFFSET -0.038290 -0.382569 -0.008850
			CHANNELS 3 Zrotation Yrotation Xrotation
			JOINT RightFoot
			{
				OFFSET 0.015774 -0.398415 -0.042312
				CHANNELS 3 Zrotation Yrotation Xrotation
				JOINT RightToe
				{
					OFFSET -0.025372 -0.048144 0.123348
					CHANNELS 3 Zrotation Yrotation Xrotation
					End Site
					{
						OFFSET 0.000000 0.000000 0.000000
					}
				}
			}
		}
	}
	JOINT Spine
	{
		OFFSET -0.002533 0.108963 -0.026696
		CHANNELS 3 Zrotation Yrotation Xrotation
		JOINT Spine1
		{
			OFFSET 0.005487 0.135180 0.001092
			CHANNELS 3 Zrotation Yrotation Xrotation
			JOINT Spine2
			{
				OFFSET 0.001457 0.052922 0.025425
				CHANNELS 3 Zrotation Yrotation Xrotation
				JOINT Neck
				{
					OFFSET -0.002778 0.213870 -0.042857
					CHANNELS 3 Zrotation Yrotation Xrotation
					JOINT Head
					{
						OFFSET 0.005152 0.064970 0.051349
						CHANNELS 3 Zrotation Yrotation Xrotation
						End Site
						{
							OFFSET 0.000000 0.000000 0.000000
						}
					}
				}
				JOINT LeftShoulder
				{
					OFFSET 0.078845 0.121749 -0.034090
					CHANNELS 3 Zrotation Yrotation Xrotation
					JOINT LeftArm
					{
						OFFSET 0.090977 0.030469 -0.008868
						CHANNELS 3 Zrotation Yrotation Xrotation
						JOINT LeftForeArm
						{
							OFFSET 0.259612 -0.012772 -0.027456
							CHANNELS 3 Zrotation Yrotation Xrotation
							JOINT LeftHand
							{
								OFFSET 0.249234 0.008986 -0.001171
								CHANNELS 3 Zrotation Yrotation Xrotation
								End Site
								{
									OFFSET 0.000000 0.000000 0.000000
								}
							}
						}
					}
				}
				JOINT RightShoulder
				{
					OFFSET -0.081759 0.118833 -0.038615
					CHANNELS 3 Zrotation Yrotation Xrotation
					JOINT RightArm
					{
						OFFSET -0.096012 0.032551 -0.009143
						CHANNELS 3 Zrotation Yrotation Xrotation
						JOINT RightForeArm
						{
							OFFSET -0.253742 -0.013329 -0.021401
							CHANNELS 3 Zrotation Yrotation Xrotation
							JOINT RightHand
							{
								OFFSET -0.255298 0.007772 -0.005559
								CHANNELS 3 Zrotation Yrotation Xrotation
								End Site
								{
									OFFSET 0.000000 0.000000 0.000000
								}
							}
						}
					}
				}
			}
		}
	}
}
MOTION
Frames: 12
Frame Time: 0.050000
0.000000 0.950588 0.000000 -2.134127 4.622859 7.055760 5.217754 -0.362355 -3.560829 -0.884030 0.139337 -2.036654 4.322738 12.216991 13.048124 0.000000 0.000000 0.000000 -4.208284 0.588254 -7.167305 -1.013187 0.051723 -1.291476 1.475780 -1.117109 11.211775 0.000000 0.000000 0.000000 1.080860 0.071937 -2.274575 1.600653 -0.415528 -6.159464 -0.127273 -2.411806 5.321877 1.302829 0.219835 -14.374649 0.000000 0.000000 0.000000 -16.481486 3.583028 -3.411169 -58.181330 -6.250531 -3.931217 -8.867867 -19.001904 2.198499 0.000000 0.000000 0.000000 13.418023 -3.150047 -2.693701 61.436548 7.023103 -2.335087 4.106862 16.248836 1.048041 0.000000 0.000000 0.000000 
0.000052 0.949223 0.000064 -2.278221 3.720267 7.310146 4.584915 -0.335554 -3.259836 0.294946 0.070825 -2.750860 4.861907 12.938770 12.965191 0.000000 0.000000 0.000000 -4.677040 0.600455 -7.448592 -0.239320 -0.015863 -1.031337 2.010990 0.295165 10.027500 0.000000 0.000000 0.000000 1.552740 0.063046 -2.221960 0.575979 0.000700 -6.523454 0.654384 -2.444636 5.109768 0.496573 0.717641 -15.261377 0.000000 0.000000 0.000000 -17.097444 5.119123 -4.153357 -57.794425 -5.716013 -4.130003 -9.676900 -19.328837 2.400111 0.000000 0.000000 0.000000 12.587644 -3.713726 -2.967817 62.181155 6.212698 -2.796900 4.637720 17.219391 1.166893 0.000000 0.000000 0.000000 
0.000084 0.948908 -0.000055 -1.962228 4.118537 7.022220 4.322216 -0.312910 -2.895315 0.230144 0.082450 -2.940900 4.616716 12.578373 12.840301 0.000000 0.000000 0.000000 -4.867986 0.567235 -7.131264 -0.132199 -0.011138 -0.647087 1.393800 -0.641369 9.303714 0.000000 0.000000 0.000000 1.256127 0.049778 -1.849648 0.681851 0.013299 -7.718048 0.184624 -3.086763 5.660350 -0.093425 1.009887 -14.691562 0.000000 0.000000 0.000000 -16.553521 4.759531 -3.816152 -58.198706 -5.589474 -4.276927 -8.674062 -19.022873 2.209370 0.000000 0.000000 0.000000 14.147209 -3.113491 -2.937355 60.684787 6.219504 -2.802917 4.126589 16.704517 1.059314 0.000000 0.000000 0.000000 
0.000067 0.948834 -0.000117 -2.344330 3.943493 7.225378 4.264862 -0.332988 -3.270475 1.035054 0.011309 -2.655913 4.802197 12.835736 12.762159 0.000000 0.000000 0.000000 -4.972448 0.616948 -8.028677 0.350017 -0.040005 -0.022680 1.958348 0.188073 10.100045 0.000000 0.000000 0.000000 1.605216 0.050147 -1.985447 -0.002464 0.258013 -7.171428 1.025856 -3.943445 4.590055 -0.369339 1.067568 -14.537604 0.000000 0.000000 0.000000 -16.199616 5.939731 -4.173669 -59.319887 -5.641864 -4.178771 -7.758962 -18.899959 2.077161 0.000000 0.000000 0.000000 13.125937 -3.250036 -3.067591 60.467804 6.396349 -2.640220 5.368763 16.401687 1.150501 0.000000 0.000000 0.000000 
-0.000096 0.949294 -0.000276 -2.243597 4.445905 6.915227 4.113774 -0.309629 -2.869475 1.235221 0.009353 -2.941022 4.480887 12.405456 12.836527 0.000000 0.000000 0.000000 -4.924736 0.590820 -7.701451 0.292700 -0.033529 -0.008534 1.623825 -0.538468 10.380770 0.000000 0.000000 0.000000 1.453623 0.039903 -1.716846 0.304740 0.150201 -7.291662 0.669012 -4.165528 4.554564 -0.599274 1.222723 -14.524966 0.000000 0.000000 0.000000 -15.894183 5.683387 -4.026742 -59.375737 -5.793001 -4.108224 -7.766040 -18.506542 2.025578 0.000000 0.000000 0.000000 13.238637 -3.281109 -3.076985 60.265414 6.526235 -2.557138 5.927408 16.002235 1.189817 0.000000 0.000000 0.000000 
-0.000269 0.949790 -0.000476 -2.252766 4.361419 6.948806 3.974056 -0.306847 -2.864695 1.497583 -0.006459 -3.019864 4.490467 12.453605 13.045163 0.000000 0.000000 0.000000 -4.882319 0.601913 -7.853744 0.171813 -0.013078 0.180216 1.756411 -0.295814 10.421495 0.000000 0.000000 0.000000 1.312729 0.045493 -1.778003 0.306178 0.152872 -7.415718 0.967793 -4.483425 4.679595 -0.401526 1.064516 -14.627216 0.000000 0.000000 0.000000 -15.954289 6.082462 -4.158116 -59.649811 -6.030052 -4.004866 -7.328941 -18.059930 1.920673 0.000000 0.000000 0.000000 12.563249 -3.061371 -2.931419 60.418895 6.850705 -2.440792 6.352606 15.761584 1.209924 0.000000 0.000000 0.000000 
-0.000467 0.950063 -0.000679 -2.255392 4.262556 6.887615 3.845915 -0.294090 -2.695299 1.725995 -0.014984 -3.197469 4.509065 12.501361 13.197225 0.000000 0.000000 0.000000 -4.572503 0.610287 -7.776494 -0.103545 0.020782 0.247258 1.495521 -0.739623 10.157148 0.000000 0.000000 0.000000 1.272422 0.044386 -1.732957 0.419629 0.101719 -7.283605 0.830684 -4.606584 4.447637 -0.191258 0.929610 -14.755159 0.000000 0.000000 0.000000 -15.920120 6.157716 -4.168921 -59.700861 -5.706546 -4.144261 -7.428046 -17.621122 1.888275 0.000000 0.000000 0.000000 12.525602 -2.830702 -2.846526 60.145610 6.931289 -2.369638 6.805459 15.826783 1.263051 0.000000 0.000000 0.000000 
-0.000551 0.950321 -0.000873 -2.282965 4.099283 6.896005 3.694199 -0.292954 -2.734545 2.016939 -0.040226 -3.120716 4.586645 12.626533 13.313664 0.000000 0.000000 0.000000 -4.300116 0.628156 -7.867200 -0.234987 0.042545 0.419430 1.201238 -1.281868 9.941720 0.000000 0.000000 0.000000 1.167898 0.050765 -1.822827 0.487759 0.065191 -7.101132 0.903526 -4.580556 4.022131 -0.196473 0.906200 -14.327655 0.000000 0.000000 0.000000 -15.942500 6.195101 -4.185447 -59.494617 -5.653554 -4.115503 -7.391914 -16.952012 1.804030 0.000000 0.000000 0.000000 12.351184 -2.741190 -2.797916 59.926298 6.771974 -2.404080 7.654070 15.941500 1.368598 0.000000 0.000000 0.000000 
-0.000585 0.950484 -0.000998 -2.336835 3.982217 6.849005 3.591223 -0.286127 -2.663896 2.277965 -0.058819 -3.138168 4.641568 12.713440 13.392685 0.000000 0.000000 0.000000 -4.079785 0.629484 -7.734640 -0.430331 0.057839 0.248697 1.157891 -1.389581 9.950819 0.000000 0.000000 0.000000 1.158914 0.051393 -1.825319 0.468886 0.071107 -7.109865 1.040924 -4.692372 3.738489 -0.250487 0.915370 -14.187209 0.000000 0.000000 0.000000 -15.993290 6.167180 -4.146304 -59.485926 -5.515660 -4.154177 -7.486380 -15.959995 1.706635 0.000000 0.000000 0.000000 12.413555 -2.591137 -2.775520 59.377872 6.681503 -2.403267 8.480449 15.998185 1.464548 0.000000 0.000000 0.000000 
-0.000602 0.950582 -0.001123 -2.373947 3.834796 6.906695 3.463939 -0.279333 -2.589122 2.542138 -0.066881 -3.353650 4.702889 12.814011 13.517287 0.000000 0.000000 0.000000 -3.951078 0.640552 -7.802432 -0.484794 0.062710 0.221123 1.088035 -1.541957 9.924216 0.000000 0.000000 0.000000 1.234895 0.061093 -2.048153 0.412165 0.086382 -6.985807 1.112903 -4.719865 3.549744 -0.280500 0.912542 -13.969033 0.000000 0.000000 0.000000 -15.934124 6.168911 -4.119131 -59.517562 -5.417884 -4.182784 -7.425019 -15.242379 1.617971 0.000000 0.000000 0.000000 12.364202 -2.391473 -2.699736 59.046747 6.490935 -2.466999 9.300296 16.359209 1.596348 0.000000 0.000000 0.000000 
-0.000688 0.950472 -0.001276 -2.392630 3.809373 6.934443 3.637689 -0.279544 -2.540629 2.276069 -0.040071 -3.503737 4.711329 12.820103 13.506169 0.000000 0.000000 0.000000 -3.976373 0.645691 -7.891348 -0.470117 0.062730 0.261444 1.172491 -1.388931 9.968491 0.000000 0.000000 0.000000 1.222359 0.070998 -2.247736 0.458325 0.064774 -6.911471 1.167461 -4.778852 3.390956 -0.356726 0.947149 -13.842503 0.000000 0.000000 0.000000 -15.947501 6.111149 -4.079490 -59.374171 -5.211605 -4.260577 -7.455378 -14.549916 1.543039 0.000000 0.000000 0.000000 12.328060 -2.440856 -2.732398 59.028166 6.516911 -2.441663 9.679326 16.362351 1.639151 0.000000 0.000000 0.000000 
-0.000879 0.950247 -0.001482 -2.426276 3.620188 7.028128 3.803149 -0.279337 -2.490183 2.029021 -0.011526 -3.738952 4.805788 12.946911 13.533631 0.000000 0.000000 0.000000 -3.998089 0.655969 -8.022468 -0.378582 0.052117 0.257321 1.246624 -1.228718 9.879830 0.000000 0.000000 0.000000 1.302735 0.081079 -2.474058 0.410106 0.077593 -6.828282 1.356088 -4.877225 3.183425 -0.428588 0.956758 -13.538331 0.000000 0.000000 0.000000 -15.942222 6.238568 -4.102810 -59.326073 -5.159214 -4.255194 -7.412659 -13.545979 1.427546 0.000000 0.000000 0.000000 12.142318 -2.473383 -2.758117 59.217193 6.414010 -2.495703 9.688105 16.356316 1.630309 0.000000 0.000000 0.000000 
